<?xml version="1.0" encoding="UTF-8"?>
<svg width="1320" height="260" viewBox="0 0 1320 260" xmlns="http://www.w3.org/2000/svg" role="img" aria-labelledby="title desc">
  <title id="title">RTD OEM Tweaks Banner</title>
  <desc id="desc">Professional banner for the RTD OEM Tweaks desktop configuration tool.</desc>
  <defs>
    <linearGradient id="bg" x1="0" y1="0" x2="1" y2="1">
      <stop offset="0" stop-color="#10253a"/>
      <stop offset="0.55" stop-color="#1f4e79"/>
      <stop offset="1" stop-color="#263238"/>
    </linearGradient>
    <linearGradient id="accent" x1="0" y1="0" x2="1" y2="0">
      <stop offset="0" stop-color="#7cc7ff"/>
      <stop offset="1" stop-color="#a8e6cf"/>
    </linearGradient>
    <filter id="softShadow" x="-20%" y="-20%" width="140%" height="140%">
      <feDropShadow dx="0" dy="10" stdDeviation="16" flood-color="#000000" flood-opacity="0.24"/>
    </filter>
  </defs>

  <rect width="1320" height="260" rx="0" fill="url(#bg)"/>
  <path d="M0 205 C210 152 350 239 535 181 C735 118 884 120 1032 154 C1153 182 1244 178 1320 145 L1320 260 L0 260 Z" fill="#ffffff" opacity="0.07"/>
  <path d="M1010 -80 L1380 290" stroke="#ffffff" stroke-width="88" opacity="0.06"/>
  <path d="M1085 -30 L1370 255" stroke="#7cc7ff" stroke-width="14" opacity="0.25"/>

  <g transform="translate(64 54)" filter="url(#softShadow)">
    <rect x="0" y="0" width="150" height="150" rx="32" fill="#ffffff" opacity="0.96"/>
    <rect x="16" y="16" width="118" height="118" rx="24" fill="#163a59"/>
    <text x="75" y="94" text-anchor="middle" font-family="Inter, Segoe UI, Cantarell, Arial, sans-serif" font-size="48" font-weight="800" fill="#ffffff" letter-spacing="2">RTD</text>
    <rect x="35" y="108" width="80" height="6" rx="3" fill="url(#accent)"/>
  </g>

  <g transform="translate(240 70)">
    <text font-family="Inter, Segoe UI, Cantarell, Arial, sans-serif" font-size="44" font-weight="800" fill="#ffffff">OEM Tweaks</text>
    <text y="48" font-family="Inter, Segoe UI, Cantarell, Arial, sans-serif" font-size="22" font-weight="500" fill="#d7e8ff">Simple desktop improvements for real users</text>
    <g transform="translate(0 82)">
      <rect x="0" y="0" width="168" height="34" rx="17" fill="#ffffff" opacity="0.14"/>
      <circle cx="23" cy="17" r="7" fill="#a8e6cf"/>
      <text x="42" y="23" font-family="Inter, Segoe UI, Cantarell, Arial, sans-serif" font-size="15" font-weight="700" fill="#ffffff">Usability</text>
      <rect x="186" y="0" width="142" height="34" rx="17" fill="#ffffff" opacity="0.14"/>
      <circle cx="209" cy="17" r="7" fill="#7cc7ff"/>
      <text x="228" y="23" font-family="Inter, Segoe UI, Cantarell, Arial, sans-serif" font-size="15" font-weight="700" fill="#ffffff">Profiles</text>
      <rect x="346" y="0" width="154" height="34" rx="17" fill="#ffffff" opacity="0.14"/>
      <circle cx="369" cy="17" r="7" fill="#ffd166"/>
      <text x="388" y="23" font-family="Inter, Segoe UI, Cantarell, Arial, sans-serif" font-size="15" font-weight="700" fill="#ffffff">GNOME</text>
    </g>
  </g>

  <g transform="translate(1040 65)" opacity="0.92">
    <rect x="0" y="0" width="205" height="124" rx="28" fill="#ffffff" opacity="0.13"/>
    <rect x="28" y="31" width="122" height="18" rx="9" fill="#ffffff" opacity="0.75"/>
    <circle cx="168" cy="40" r="16" fill="#a8e6cf"/>
    <rect x="28" y="76" width="98" height="18" rx="9" fill="#ffffff" opacity="0.45"/>
    <circle cx="168" cy="85" r="16" fill="#7cc7ff"/>
  </g>
</svg>
